<svg id="visual" viewBox="0 0 900 600" width="900" height="600" xmlns="http://www.w3.org/2000/svg" xmlns:xlink="http://www.w3.org/1999/xlink" version="1.1"><rect x="0" y="0" width="900" height="600" fill="#D5F591"></rect><path d="M0 448L15 441.8C30 435.7 60 423.3 90 426.8C120 430.3 150 449.7 180 446.8C210 444 240 419 270 415.2C300 411.3 330 428.7 360 446.2C390 463.7 420 481.3 450 483.5C480 485.7 510 472.3 540 465.8C570 459.3 600 459.7 630 463.7C660 467.7 690 475.3 720 468.3C750 461.3 780 439.7 810 439.5C840 439.3 870 460.7 885 471.3L900 482L900 601L885 601C870 601 840 601 810 601C780 601 750 601 720 601C690 601 660 601 630 601C600 601 570 601 540 601C510 601 480 601 450 601C420 601 390 601 360 601C330 601 300 601 270 601C240 601 210 601 180 601C150 601 120 601 90 601C60 601 30 601 15 601L0 601Z" fill="#44B78B" stroke-linecap="round" stroke-linejoin="miter"></path></svg>